<svg width="32" height="32" viewBox="0 0 100 100" xmlns="http://www.w3.org/2000/svg">
  <circle cx="50" cy="50" r="48" fill="#1e3a5f"/>
  <path d="M50 15 
           C75 15, 85 35, 85 50 
           C85 70, 70 85, 50 85 
           C35 85, 20 75, 20 55 
           C20 40, 32 28, 50 28 
           C62 28, 72 38, 72 50 
           C72 60, 62 70, 50 70 
           C42 70, 35 63, 35 55 
           C35 48, 42 42, 50 42 
           C55 42, 60 47, 60 52"
        stroke="white" 
        stroke-width="6" 
        fill="none"
        stroke-linecap="round"/>
</svg>
