<?xml version="1.0" encoding="UTF-8" standalone="no"?>
<svg
   xmlns:dc="http://purl.org/dc/elements/1.1/"
   xmlns:cc="http://creativecommons.org/ns#"
   xmlns:rdf="http://www.w3.org/1999/02/22-rdf-syntax-ns#"
   xmlns:svg="http://www.w3.org/2000/svg"
   xmlns="http://www.w3.org/2000/svg"
   viewBox="0 0 206.91612 107.46098"
   height="107.46098"
   width="206.91612"
   xml:space="preserve"
   version="1.1"
   id="svg2"><metadata
     id="metadata8"><rdf:RDF><cc:Work
         rdf:about=""><dc:format>image/svg+xml</dc:format><dc:type
           rdf:resource="http://purl.org/dc/dcmitype/StillImage" /><dc:title></dc:title></cc:Work></rdf:RDF></metadata><defs
     id="defs6" /><g
     transform="matrix(1.25,0,0,-1.25,-16.923875,195.42973)"
     id="g10"><g
       transform="scale(0.1,0.1)"
       id="g12"><path
         id="path16"
         style="fill:#1b458f;fill-opacity:1;fill-rule:nonzero;stroke:none"
         d="m 1152.99,1526.32 c -24.78,-16.6 -89,-88.55 -89,-88.55 -12.86,-13.54 -19.2,-12.38 -19.2,-12.38 -7.95,-0.68 -10,8.76 -10,8.76 -0.93,3.73 -1.86,7.33 -2.77,10.81 l 0,0.32 c -10.48,40.54 -17.74,64.29 -25.32,82.33 0,0 11.88,0.75 18.29,1.42 6.44,0.68 5.51,-1.13 6.28,-4.03 0,0 1.64,-5.12 3.63,-5.12 2.25,0 2.52,2 2.52,2 1.32,5.54 1.36,28.57 -9.4,30 -10.75,1.43 -23.73,0 -23.73,0 -4.12,4.13 -6.907,7.59 -12.505,9.39 -6.828,3.11 -25.711,1.96 -25.711,1.96 0,0 -7.535,0.09 -15.722,-1.25 -7.59,-1.27 -13.625,-6.87 -18.993,-16.48 -20.863,-37.34 -35.875,-96.5 -38.578,-107.02 0,0 -2.715,-12.2 -8.73,-11.59 0,0 -4.93,-2.66 -17.762,10.88 0,0 -64.242,71.95 -89.019,88.55 -22.625,15.15 -100.446,29.48 -114.735,-103.27 -13.797,-128.01 42.555,-274.4 83.199,-459.394 0,0 47.723,30.297 56.84,89.864 l 4.231,-6.54 c 3.472,-5.08 14.242,-6.34 21.883,4.17 l 18.808,25.86 c 7.633,10.51 1.285,19.48 0.09,21.31 l -4.039,6.43 c -0.68,1.09 -0.395,2.61 0.637,3.34 l 28.574,20.77 c 1.039,0.76 2.562,0.56 3.379,-0.44 l 4.855,-5.8 c 1.379,-1.71 7.938,-10.51 20.297,-6.49 l 30.422,9.87 c 12.363,4.01 12.5,14.99 12.605,17.17 l 0.512,7.56 c 0.082,1.31 1.207,2.34 2.492,2.36 l 35.621,0 c 1.282,-0.02 2.411,-1.05 2.485,-2.36 l 0.512,-7.56 c 0.105,-2.18 0.246,-13.16 12.593,-17.17 l 30.439,-9.87 c 12.35,-4.02 18.92,4.78 20.29,6.49 l 4.85,5.8 c 0.82,1 2.35,1.2 3.38,0.44 l 28.59,-20.77 c 1.04,-0.73 1.31,-2.25 0.63,-3.34 l -4.04,-6.43 c -1.2,-1.83 -7.55,-10.8 0.1,-21.31 l 18.8,-25.86 c 7.64,-10.51 18.41,-9.25 21.87,-4.17 l 4.24,6.54 c 9.11,-59.567 56.84,-89.864 56.84,-89.864 40.65,184.994 97,331.384 83.21,459.394 -14.3,132.75 -92.12,118.42 -114.74,103.27 z M 861.781,1418.64 c 10.399,-10.16 17.133,-9.65 19.895,-9.52 1.89,0.15 4.308,0.54 6.047,2.11 -2.508,-13.34 -4.418,-34.28 -4.418,-34.39 0,-1 -1.742,-6.2 -5.5,-9.14 -3.547,-2.81 -10.989,-11.09 -27.809,-5.44 -20.617,6.9 -25.723,19.84 -25.375,29.33 0.172,4.94 1.981,12.53 2.883,16.33 2.687,11.23 7.016,25.95 12.098,33.95 2.031,-2.2 22.179,-23.23 22.179,-23.23 z m -70.379,73.49 c 14.875,-13.59 25.2,-24.29 36.512,-37.13 -2.988,-5.57 -11.273,-24.3 -14.441,-38.75 -1.235,-5.66 -4.137,-20.82 -14.918,-24.26 -5.344,-1.7 -13.328,-0.94 -19.934,2.98 -15.094,9.07 -20.461,21.34 -20.461,30.35 0,6.68 3.371,16.66 3.508,17.14 6.902,24.34 23.715,45.08 29.734,49.67 z m -64.597,24.89 c 17.328,6.94 34.152,1.33 42.652,-5.3 3.102,-2.39 8.219,-5.74 10.391,-8.61 -9.375,-7.29 -24.461,-22.32 -35.297,-57.65 -0.934,-3.44 -3.821,-12.2 -15.582,-7.35 0,0 -20.379,7.3 -36.196,-3.83 -6.718,-4.74 -10.394,-9.43 -14.277,-15.97 2.219,53.48 27.078,90.16 48.309,98.71 z M 756.07,994.199 c -15.218,70.181 -38.363,159.591 -38.609,160.341 -29.023,107.89 -34.594,157.5 -34.645,157.86 -0.062,0.44 -4,24.6 -4.339,44.58 -0.586,33.06 5.382,57.3 31,64.56 4.214,0.86 13.531,3.31 25.308,-6 0,0 -1.933,-10.78 -2.469,-17.36 -0.773,-9.21 -1.582,-15.97 -1.418,-24.69 2.004,-105.78 25.887,-180.4 41.497,-239.8 6.582,-25.06 12.324,-44.06 13.41,-56.68 3.57,-41.46 -22.086,-74.44 -29.735,-82.811 z m 73.813,121.491 c -5.75,-4.19 -4.641,-13.11 -2.543,-16.43 l 7.785,-12.24 -19.766,-27.22 c -26.257,74.62 -65.793,205.5 -66.23,302.94 -0.016,4.85 0.078,9.64 0.285,14.34 0.535,11.63 0.781,17.22 1.832,24.2 2.574,-13.07 20.676,-34.83 53.801,-26.92 -0.141,-3.03 -0.238,-5.77 -0.238,-9.34 0,-11.28 0.254,-34.52 1.546,-47.57 8.231,-83.02 23.954,-148.65 38.887,-190.6 l -15.359,-11.16 z m 56.496,26.46 c -2.508,3.01 -10.656,6.82 -16.406,2.65 l -9.375,-6.82 c -31.567,96.19 -39.297,183.01 -38.895,227.78 3.215,-15.61 37.672,-33.12 60.539,-13.07 -1.371,-17.35 -3.445,-102.5 13.367,-221.73 -2.363,2.85 -9.222,11.19 -9.23,11.19 z m 14.582,111.07 c -1.77,24.08 -5.344,131.29 7.844,173.14 3.754,-13.5 26.32,-25.05 46.504,-12.2 0,-5.77 0,-153.14 0,-160.66 -3.586,10.1 -37.305,20.08 -54.348,-0.28 z m 55.016,-85.37 -15.786,-0.23 c -7.097,0 -11.461,-7.87 -11.707,-11.79 0,-0.02 -0.656,-10.79 -0.886,-14.49 l -17.043,-5.52 c -8.266,63.68 -7.129,82.58 -7.129,82.58 0,21 12.679,27.43 25.699,27.31 9.574,-0.08 26.852,-3.42 26.852,-31.54 l 0,-46.32 z m 9.242,275.49 c -0.219,0.9 -1.016,1.54 -1.934,1.54 -0.937,0 -1.73,-0.64 -1.933,-1.54 -0.114,-0.59 -3.45,-13.83 -19.129,-16.88 -7.262,-1.41 -13.297,-0.1 -17.934,3.93 -6.601,5.76 -8.531,14.84 -8.195,21.31 0.117,2.26 0.457,5.9 1.437,10.34 5.735,25.82 23.164,85.71 39.438,85.71 0.062,0 0.129,0 0.187,0 16.039,1.63 34.278,0.92 35.875,-2.71 1.242,-2.96 2.074,-6.98 1.285,-8.14 -0.043,-0.1 -0.214,-0.28 -0.867,-0.28 -1.636,0.03 -16.168,0.15 -19.59,-3.85 -0.738,-0.84 -1.035,-1.87 -0.843,-2.89 0.398,-2.47 2.941,-3.26 5.875,-4.15 4.445,-1.34 11.148,-3.37 15.589,-11.67 5.82,-10.86 14,-35.32 17.81,-52.02 0,0 1.23,-4.68 1.58,-10.34 0.4,-6.47 -1.58,-16.06 -8.2,-21.81 -4.63,-4.05 -14.072,-5.37 -21.318,-3.94 -15.661,3.05 -19,16.8 -19.133,17.39 z m 54.051,-307.38 -16.61,5.38 c 0,0 -0.88,14.47 -0.88,14.49 -0.26,3.92 -4.612,11.79 -11.725,11.79 l -15.766,0.23 0,46.32 c 0,28.12 17.274,31.46 26.831,31.54 13.03,0.12 25.72,-6.31 25.72,-27.31 0,0 0.02,-18.39 -7.57,-82.44 z m 10.03,117.26 c -17.03,20.36 -50.769,10.38 -54.339,0.28 0,7.52 0,154.89 0,160.66 20.18,-12.85 42.749,-1.3 46.489,12.2 13.21,-41.85 9.6,-149.06 7.85,-173.14 z m 131.5,258.5 c 8.51,6.63 25.33,12.24 42.68,5.3 21.21,-8.55 46.07,-45.23 48.29,-98.71 -3.89,6.54 -7.56,11.23 -14.28,15.97 -15.82,11.13 -36.2,3.83 -36.2,3.83 -11.75,-4.85 -14.64,3.91 -15.59,7.35 -10.83,35.33 -25.91,50.36 -35.3,57.65 2.19,2.87 7.31,6.22 10.4,8.61 z m -21.95,-19.59 c 6.04,-4.59 22.84,-25.33 29.74,-49.67 0.13,-0.48 3.52,-10.46 3.52,-17.14 0,-9.01 -5.36,-21.28 -20.46,-30.35 -6.61,-3.92 -14.6,-4.68 -19.94,-2.98 -10.79,3.44 -13.68,18.6 -14.92,24.26 -3.16,14.45 -11.45,33.18 -14.45,38.75 11.32,12.84 21.64,23.54 36.51,37.13 z m -90.26,-83.01 c 2.77,-0.13 9.48,-0.64 19.89,9.52 0,0 20.14,21.03 22.18,23.23 5.07,-8 9.41,-22.72 12.1,-33.95 0.89,-3.8 2.7,-11.39 2.88,-16.33 0.34,-9.49 -4.75,-22.43 -25.37,-29.33 -16.8,-5.65 -24.27,2.63 -27.82,5.44 -3.74,2.94 -5.49,8.14 -5.49,9.14 0,0.11 -1.92,21.05 -4.42,34.39 1.75,-1.57 4.14,-1.96 6.05,-2.11 z m 11.69,-264.32 c -5.75,4.17 -13.89,0.36 -16.41,-2.65 0,0 -6.87,-8.34 -9.23,-11.19 16.81,119.23 14.74,204.38 13.36,221.73 22.89,-20.05 57.34,-2.54 60.56,13.07 0.41,-44.74 -7.34,-131.64 -38.86,-227.76 l -9.42,6.8 z m 54.62,-85 -19.77,27.22 7.78,12.24 c 2.11,3.32 3.22,12.24 -2.53,16.43 l -15.26,11.57 c 14.62,42.26 30.79,109.58 38.78,190.19 1.3,13.05 1.55,36.29 1.55,47.57 0,3.57 -0.11,6.31 -0.24,9.34 33.13,-7.91 51.23,13.85 53.81,26.92 1.04,-6.98 1.3,-12.57 1.82,-24.2 0.2,-4.7 0.3,-9.49 0.29,-14.34 -0.44,-97.44 -40.27,-231.68 -66.23,-302.94 z m 132.56,252.6 c -0.05,-0.36 -5.63,-49.97 -34.67,-157.86 -0.23,-0.75 -23.39,-90.16 -38.6,-160.341 -7.65,8.371 -33.31,41.351 -29.73,82.811 1.08,12.62 6.82,31.62 13.4,56.68 15.61,59.4 39.5,134.02 41.5,239.8 0.17,8.72 -0.63,15.48 -1.43,24.69 -0.5,6.58 -2.45,17.36 -2.45,17.36 11.76,9.31 21.09,6.86 25.31,6 25.62,-7.26 31.58,-31.5 31,-64.56 -0.35,-19.98 -4.29,-44.14 -4.33,-44.58" /><path
         id="path18"
         style="fill:#1b458f;fill-opacity:1;fill-rule:nonzero;stroke:none"
         d="m 965.121,1103.44 c -34.801,0 -66.922,-13.16 -90.457,-37.05 -23.637,-24.02 -36.652,-56.85 -36.652,-92.456 0,-0.653 0.031,-1.321 0.039,-1.981 l 17.894,0 c -0.019,0.66 -0.05,1.328 -0.05,1.981 0,63.046 46.953,110.566 109.226,110.566 62.299,0 109.259,-47.52 109.259,-110.566 0,-0.653 -0.05,-1.321 -0.05,-1.981 l 17.88,0 c 0,0.66 0.04,1.328 0.04,1.981 0,35.606 -13.02,68.436 -36.66,92.456 -23.55,23.89 -55.664,37.05 -90.469,37.05" /><path
         id="path20"
         style="fill:#1b458f;fill-opacity:1;fill-rule:nonzero;stroke:none"
         d="m 965.121,1049.3 c -20.246,0 -38.949,-7.66 -52.633,-21.58 -13.785,-13.97 -21.347,-33.095 -21.347,-53.814 0,-0.66 0.078,-1.316 0.093,-1.988 l 19.871,0 c -0.054,1.02 -0.148,2.016 -0.148,3.062 0,30.54 23.293,53.61 54.164,53.61 30.899,0 54.179,-23.07 54.179,-53.61 0,-1.046 -0.09,-2.042 -0.14,-3.062 l 19.86,0 c 0.02,0.672 0.1,1.328 0.1,1.988 0,20.719 -7.57,39.844 -21.34,53.814 -13.71,13.92 -32.405,21.58 -52.659,21.58" /><path
         id="path60"
         style="fill:#1b458f;fill-opacity:1;fill-rule:nonzero;stroke:none"
         d="m 135.391,783.617 c 0,-41.902 35.23,-75.754 76.933,-75.754 15.653,0 31.309,5.282 44.031,14.481 l 0,20.355 c -11.738,-11.738 -27.988,-19.574 -44.625,-19.574 -33.078,0 -59.898,28.59 -59.898,61.082 0,32.488 26.621,61.047 59.504,61.047 17.031,0 33.281,-7.422 45.019,-19.559 l 0,20.364 c -13.113,9.785 -27.609,14.472 -44.031,14.472 -42.281,0 -76.933,-34.64 -76.933,-76.914" /><path
         id="path62"
         style="fill:#1b458f;fill-opacity:1;fill-rule:nonzero;stroke:none"
         d="m 364.398,860.531 c -42.078,0 -76.918,-34.246 -76.918,-76.539 0,-42.472 34.84,-76.129 76.918,-76.129 42.086,0 76.915,33.657 76.915,76.129 0,42.293 -34.829,76.539 -76.915,76.539 z m 0,-137.406 c -33.468,0 -60.492,27.785 -60.492,61.082 0,33.457 26.621,61.047 60.492,61.047 33.872,0 60.489,-27.59 60.489,-61.047 0,-33.297 -27.012,-61.082 -60.489,-61.082" /><path
         id="path64"
         style="fill:#1b458f;fill-opacity:1;fill-rule:nonzero;stroke:none"
         d="m 590.473,743.684 -115.094,120.566 0,-153.844 16.441,0 0,113.715 115.094,-120.371 0,154.242 -16.441,0 0,-114.308" /><path
         id="path66"
         style="fill:#1b458f;fill-opacity:1;fill-rule:nonzero;stroke:none"
         d="m 648.41,710.406 16.453,0 0,73.211 49.114,0 0,15.262 -49.114,0 0,43.836 50.688,0 0,15.277 -67.141,0 0,-147.586" /><path
         id="path68"
         style="fill:#1b458f;fill-opacity:1;fill-rule:nonzero;stroke:none"
         d="m 753.125,710.406 16.457,0 0,147.586 -16.457,0 0,-147.586 z" /><path
         id="path70"
         style="fill:#1b458f;fill-opacity:1;fill-rule:nonzero;stroke:none"
         d="m 926.359,743.684 -115.093,120.566 0,-153.844 16.441,0 0,113.715 115.098,-120.371 0,154.242 -16.446,0 0,-114.308" /><path
         id="path72"
         style="fill:#1b458f;fill-opacity:1;fill-rule:nonzero;stroke:none"
         d="m 1069.64,840.172 c -17.42,14.883 -35.43,17.82 -57.56,17.82 l -27.787,0 0,-147.586 27.407,0 c 23.1,0 40.71,2.934 58.33,18.59 16.24,14.492 24.08,33.473 24.08,54.996 0,21.934 -7.64,41.703 -24.47,56.18 z m -10.38,-99.227 c -13.51,-12.738 -28.57,-15.281 -46.57,-15.281 l -11.96,0 0,117.051 11.96,0 c 17.41,0 32.29,-2.344 45.79,-14.281 12.73,-11.164 19.18,-27.391 19.18,-44.227 0,-16.461 -6.25,-31.918 -18.4,-43.262" /><path
         id="path74"
         style="fill:#1b458f;fill-opacity:1;fill-rule:nonzero;stroke:none"
         d="m 1216.24,770.109 c 0,-11.558 0.59,-24.476 -7.24,-33.871 -6.84,-8.226 -18.39,-13.113 -28.97,-13.113 -10.76,0 -23.28,5.082 -29.76,14.098 -6.84,9.394 -6.46,21.918 -6.46,32.886 l 0,87.883 -16.44,0 0,-92.39 c 0,-16.84 1.58,-30.344 14.51,-42.672 9.97,-9.785 24.26,-15.067 38.15,-15.067 14.88,0 29.55,5.871 39.75,16.836 11.73,12.137 12.9,24.848 12.9,40.903 l 0,92.39 -16.44,0 0,-87.883" /><path
         id="path76"
         style="fill:#1b458f;fill-opacity:1;fill-rule:nonzero;stroke:none"
         d="m 1322.54,794.961 -9.8,4.309 c -9.98,4.496 -23.1,10.378 -23.1,23.097 0,13.492 11.36,22.887 24.48,22.887 12.52,0 19.57,-5.852 25.43,-16.031 l 13.12,8.41 c -7.81,14.488 -21.73,22.898 -38.18,22.898 -21.91,0 -41.28,-14.691 -41.28,-37.59 0,-21.128 14.88,-29.933 32.09,-37.765 l 9.01,-3.918 c 13.7,-6.266 27.2,-12.133 27.2,-29.363 0,-16.637 -14.47,-28.77 -30.33,-28.77 -15.85,0 -27.4,12.328 -29.57,27.395 l -16.04,-4.493 c 4.7,-22.902 22.32,-38.164 45.99,-38.164 25.64,0 46.39,19.754 46.39,45.606 0,23.472 -16.24,33.082 -35.41,41.492" /><path
         id="path78"
         style="fill:#1b458f;fill-opacity:1;fill-rule:nonzero;stroke:none"
         d="m 1379.87,842.715 35.64,0 0,-132.309 16.44,0 0,132.309 36.01,0 0,15.277 -88.09,0 0,-15.277" /><path
         id="path80"
         style="fill:#1b458f;fill-opacity:1;fill-rule:nonzero;stroke:none"
         d="m 1570.91,817.27 c 0,33.277 -26.03,40.722 -54.01,40.722 l -21.35,0 0,-147.586 16.45,0 0,64.785 4.11,0 44.62,-64.785 20.18,0 -47,66.16 c 22.72,1.95 37,18 37,40.704 z m -58.91,-27.59 0,53.035 4.9,0 c 19.75,0 37.56,-2.344 37.56,-26.606 0,-22.906 -18.78,-26.429 -37.37,-26.429 l -5.09,0" /><path
         id="path82"
         style="fill:#1b458f;fill-opacity:1;fill-rule:nonzero;stroke:none"
         d="m 1612.81,710.406 16.4297,0 0,147.586 -16.4297,0 0,-147.586 z" /><path
         id="path84"
         style="fill:#1b458f;fill-opacity:1;fill-rule:nonzero;stroke:none"
         d="m 1724.36,865.039 -68.11,-154.633 18.02,0 17.82,41.883 63.01,0 17.43,-41.883 18.19,0 -66.36,154.633 z m -25.63,-97.488 25.26,59.113 24.65,-59.113 -49.91,0" /></g></g></svg>